# Created by Kenney (www.kenney.nl)

mtllib scene.mtl

g mergedBlocks

v -1.5 0 -0.5
v -0.5 0 -0.5
v -1.5 0.1 -0.5
v -0.5 0.1 -0.5
v -0.5 0 0.5
v -1.5 0 0.5
v -0.5 0.1 0.5
v -1.5 0.1 0.5
v -0.5 0 1.5
v -1.5 0 1.5
v -0.5 0.1 1.5
v -1.5 0.1 1.5
v 0.5 0 0.5
v 0.5 0.1 0.5
v 0.5 0 1.5
v 0.5 0.1 1.5
v 1.5 0 0.5
v 1.5 0.1 0.5
v 1.5 0 1.5
v 1.5 0.1 1.5
v 0.5 0 -0.5
v 1.5 0 -0.5
v 0.5 0.1 -0.5
v 1.5 0.1 -0.5
v 1.5 0 -1.5
v 2.5 0 -1.5
v 1.5 0.1 -1.5
v 2.5 0.1 -1.5
v 2.5 0 -0.5
v 2.5 0.1 -0.5
v 2.5 0 0.5
v 2.5 0.1 0.5
v 2.5 0 1.5
v 2.5 0.1 1.5
v 2.5 0 2.5
v 1.5 0 2.5
v 2.5 0.1 2.5
v 1.5 0.1 2.5
v 0.5 0 2.5
v 0.5 0.1 2.5
v -0.5 0 2.5
v -0.5 0.1 2.5
v -1.5 0 2.5
v -1.5 0.1 2.5
v -2.5 0 1.5
v -2.5 0.1 1.5
v -2.5 0 2.5
v -2.5 0.1 2.5
v -2.5 0 0.5
v -2.5 0.1 0.5
v -2.5 0 -0.5
v -2.5 0.1 -0.5
v -2.5 0 -1.5
v -1.5 0 -1.5
v -2.5 0.1 -1.5
v -1.5 0.1 -1.5
v 1.5 0 -2.5
v 2.5 0 -2.5
v 1.5 0.1 -2.5
v 2.5 0.1 -2.5
v 0.5 0 -2.5
v 0.5 0.1 -2.5
v 0.5 0 -1.5
v 0.5 0.1 -1.5
v -0.5 0 -2.5
v -0.5 0.1 -2.5
v -0.5 0 -1.5
v -0.5 0.1 -1.5
v -1.5 0 -2.5
v -1.5 0.1 -2.5
v -2.5 0 -2.5
v -2.5 0.1 -2.5
v 0.00999999 1.5 0.7967434
v -0.6725 1.5 0.4330127
v 0.00999999 1.7 1.03923
v -0.9 1.7 0.5542562
v 0.92 1.7 0.5542562
v 0.92 2 0.5542562
v 0.00999999 2 1.03923
v 0.92 2 -0.4156922
v 0.92 1.7 -0.4156922
v 0.6925 1.5 0.4330127
v 0.6925 1.5 -0.2944487
v 0.00999999 1.5 -0.6581794
v -0.6725 1.5 -0.2944487
v -0.9 1.7 -0.4156922
v 0.00999999 1.7 -0.9006665
v -0.9 2 -0.4156922
v 0.00999999 2 -0.9006665
v -0.9 2 0.5542562
v 0.465 2.5 -0.1732051
v 0.465 2.5 0.3117691
v 0.00999999 2.5 -0.4156922
v 0.00999999 2.5 0.5542562
v -0.445 2.5 -0.1732051
v -0.445 2.5 0.3117691
v 0.181066 0.5 -0.075
v 0.181066 0.5 0.075
v 0.075 0.5 -0.181066
v 0.07499999 0.5 0.181066
v -0.075 0.5 -0.181066
v -0.075 0.5 0.181066
v -0.181066 0.5 -0.075
v -0.181066 0.5 0.075
v 0.3639427 6.8742E-17 0.15075
v 0.15075 6.8742E-17 0.3639427
v 0.2457066 0.15 0.101775
v 0.101775 0.15 0.2457066
v -0.101775 0.15 0.2457066
v -0.15075 6.8742E-17 0.3639427
v -0.2457066 0.15 0.101775
v -0.3639427 6.8742E-17 0.15075
v -0.15075 6.8742E-17 -0.3639427
v 0.15075 6.8742E-17 -0.3639427
v -0.101775 0.15 -0.2457066
v 0.101775 0.15 -0.2457066
v 0.3639427 6.8742E-17 -0.15075
v 0.2457066 0.15 -0.101775
v -0.2457066 0.15 -0.101775
v -0.3639427 6.8742E-17 -0.15075
v 0.181066 1 -0.075
v 0.075 1 -0.181066
v 0.181066 1 0.075
v 0.07499999 1 0.181066
v -0.075 1 -0.181066
v -0.075 1 0.181066
v -0.181066 1 -0.075
v -0.181066 1 0.075
v 0.181066 1.5 -0.075
v 0.181066 1.5 0.075
v 0.075 1.5 -0.181066
v 0.07499999 1.5 0.181066
v -0.075 1.5 -0.181066
v -0.075 1.5 0.181066
v -0.181066 1.5 -0.075
v -0.181066 1.5 0.075
v -0.181066 1.175 -0.075
v -0.075 1.075 -0.181066
v -0.075 1.225 -0.181066
v -0.181066 1.325 -0.075
v 0.181066 1.325 -0.075
v 0.181066 1.325 0.075
v -0.181066 1.175 0.075
v -0.181066 1.325 0.075
v -0.075 1.275 0.181066
v -0.075 1.425 0.181066
v 0.07499999 1.425 0.181066
v 0.075 1.075 -0.181066
v 0.181066 1.175 0.075
v 0.07499999 1.275 0.181066
v 0.075 1.225 -0.181066
v 0.181066 1.175 -0.075
v -0.281066 1.2125 -0.0375
v -0.281066 1.2125 0.0375
v -0.281066 1.2875 -0.0375
v -0.281066 1.2875 0.0375
v 0.0375 1.1875 -0.281066
v 0.0375 1.1125 -0.281066
v -0.0375 1.1125 -0.281066
v -0.0375 1.1875 -0.281066
v 0.281066 1.2875 -0.03749999
v 0.281066 1.2125 -0.03749999
v 0.281066 1.2875 0.03750001
v 0.281066 1.2125 0.03750001
v 0.03749999 1.3125 0.281066
v -0.03750001 1.3125 0.281066
v 0.03749999 1.3875 0.281066
v -0.03750001 1.3875 0.281066

vn 0 0 -1
vn 0 0 1
vn 0 1 0
vn 1 0 0
vn -1 0 0
vn 0 -0.7714543 0.6362847
vn -0.5204747 -0.7893867 0.3255376
vn 0.847822 0 0.530281
vn 0.847822 0 -0.530281
vn 0 -1 0
vn 0.5204747 -0.7893867 0.3255376
vn -0.847822 0 -0.530281
vn -0.847822 0 0.530281
vn 0.5204747 -0.7893867 -0.3255376
vn -0.5204747 -0.7893867 -0.3255376
vn 0 -0.7714543 -0.6362847
vn 0.5909632 0.7170353 0.3696254
vn 0 0.6962389 0.7178102
vn 0 0.6962389 -0.7178102
vn 0.5909632 0.7170353 -0.3696254
vn -0.5909632 0.7170353 -0.3696254
vn -0.5909632 0.7170353 0.3696254
vn 0.5553287 0.6190476 0.5553288
vn -0.5553288 0.6190476 0.5553287
vn 0 0.6190476 -0.7853535
vn 0.5553288 0.6190476 -0.5553287
vn -0.5553287 0.6190475 -0.5553287
vn 0 0.6190476 0.7853535
vn 0.7853535 0.6190476 0
vn -0.7853535 0.6190476 0
vn -0.6953472 0.1816159 -0.6953473
vn 0 0.1816159 -0.9833695
vn 0.6953473 0.1816159 -0.6953472
vn 0 0.1816159 0.9833695
vn 0.6953472 0.1816159 0.6953473
vn -0.6953473 0.1816159 0.6953472
vn 0.9833695 0.1816159 0
vn -0.9833695 0.1816159 0
vn -0.7071068 0 -0.7071068
vn 0.8664506 0.4992629 0
vn -0.7071068 0 0.7071067
vn 0 0.4992629 0.8664506
vn 0 -0.4992629 -0.8664506
vn 0.7071067 0 0.7071068
vn 0.7071068 0 -0.7071067
vn -0.8664506 -0.4992629 0
vn -0.3511235 -0.9363292 0
vn -0.8664506 0.4992629 0
vn -0.3511235 0.9363292 0
vn -0.3511235 0 0.9363292
vn -0.3511235 0 -0.9363292
vn 0.9363292 0 -0.3511235
vn -0.9363292 0 -0.3511235
vn 0 -0.9363292 -0.3511235
vn 0 0.4992629 -0.8664506
vn 0 0.9363292 -0.3511235
vn 0.3511235 0 -0.9363292
vn 0.3511235 -0.9363292 0
vn 0.8664506 -0.4992629 0
vn 0.3511235 0 0.9363292
vn 0.3511235 0.9363292 0
vn -0.9363292 0 0.3511235
vn 0 0.9363292 0.3511235
vn 0 -0.4992629 0.8664506
vn 0 -0.9363292 0.3511235
vn 0.9363292 0 0.3511235

vt 1.5 0
vt 0.5 0
vt 1.5 0.1
vt 0.5 0.1
vt -0.5 0
vt -1.5 0
vt -0.5 0.1
vt -1.5 0.1
vt 0.5 -0.5
vt 0.5 0.5
vt 1.5 -0.5
vt 1.5 0.5
vt 0.5 1.5
vt 1.5 1.5
vt -0.5 0.5
vt -0.5 1.5
vt -1.5 0.5
vt -1.5 1.5
vt -1.5 -0.5
vt -0.5 -0.5
vt -2.5 0
vt -2.5 0.1
vt 2.5 0
vt 2.5 0.1
vt -2.5 -1.5
vt -2.5 -0.5
vt -1.5 -1.5
vt -2.5 0.5
vt -2.5 1.5
vt -2.5 2.5
vt -1.5 2.5
vt -0.5 2.5
vt 0.5 2.5
vt 1.5 2.5
vt 2.5 1.5
vt 2.5 2.5
vt 2.5 0.5
vt 2.5 -0.5
vt 1.5 -1.5
vt 2.5 -1.5
vt -2.5 -2.5
vt -1.5 -2.5
vt -0.5 -2.5
vt -0.5 -1.5
vt 0.5 -2.5
vt 0.5 -1.5
vt 1.5 -2.5
vt 2.5 -2.5
vt -0.00999999 -0.7967434
vt 0.6725 -0.4330127
vt -0.00999999 -1.03923
vt 0.9 -0.5542563
vt 0.92 1.7
vt 0.00999999 1.7
vt 0.92 2
vt 0.00999999 2
vt 0.4156922 2
vt 0.4156922 1.7
vt -0.5542563 2
vt -0.5542563 1.7
vt -0.6925 -0.4330127
vt -0.6925 0.2944487
vt -0.00999999 0.6581794
vt 0.6725 0.2944487
vt -0.92 -0.5542563
vt 0.9 1.7
vt -0.00999999 1.7
vt 0.9 2
vt -0.00999999 2
vt -0.4156922 1.7
vt -0.4156922 2
vt 0.5542563 1.7
vt 0.5542563 2
vt -0.9 1.7
vt -0.9 2
vt -0.92 1.7
vt -0.92 2
vt -0.92 0.4156922
vt 0.9 0.4156922
vt -0.00999999 0.9006665
vt -0.465 -0.1732051
vt -0.465 0.3117691
vt -0.00999999 -0.4156922
vt -0.00999999 0.5542563
vt 0.445 -0.1732051
vt 0.445 0.3117691
vt 0.465 2.5
vt 0.00999999 2.5
vt -0.00999999 2.5
vt -0.465 2.5
vt -0.1732051 2.5
vt 0.3117691 2.5
vt 0.445 2.5
vt -0.445 2.5
vt 0.1732051 2.5
vt -0.3117691 2.5
vt -0.181066 -0.075
vt -0.181066 0.075
vt -0.075 -0.181066
vt -0.07499999 0.181066
vt 0.075 -0.181066
vt 0.075 0.181066
vt 0.181066 -0.075
vt 0.181066 0.075
vt -0.3639427 0.15075
vt -0.15075 0.3639427
vt -0.2457066 0.101775
vt -0.101775 0.2457066
vt 0.101775 0.2457066
vt 0.15075 0.3639427
vt 0.2457066 0.101775
vt 0.3639427 0.15075
vt 0.15075 6.8742E-17
vt -0.15075 6.8742E-17
vt 0.101775 0.15
vt -0.101775 0.15
vt -0.3639427 -0.15075
vt -0.2457066 -0.101775
vt -0.15075 -0.3639427
vt -0.101775 -0.2457066
vt 0.101775 -0.2457066
vt 0.2457066 -0.101775
vt 0.15075 -0.3639427
vt 0.3639427 -0.15075
vt 0.15075 6.8742E-17
vt -0.15075 6.8742E-17
vt 0.101775 0.15
vt -0.101775 0.15
vt 0.2457066 0.15
vt 0.181066 0.5
vt 0.075 0.5
vt -0.075 0.5
vt -0.2457066 0.15
vt 0.075 0.5
vt 0.07499999 0.5
vt 0.181066 0.5
vt -0.181066 0.5
vt -0.15075 0.3639427
vt -0.15075 -0.3639427
vt 0.15075 0.3639427
vt 0.15075 -0.3639427
vt -0.181066 0.075
vt -0.075 0.181066
vt -0.181066 -0.075
vt -0.07499999 -0.181066
vt 0.181066 1
vt 0.075 1
vt 0.181066 1.175
vt 0.075 1.075
vt 0.075 1.225
vt 0.181066 1.325
vt 0.075 1.5
vt 0.181066 1.5
vt 0.075 1.5
vt 0.075 1.325
vt -0.075 1.5
vt -0.075 1.325
vt -0.181066 1
vt -0.181066 1.175
vt -0.075 1
vt -0.181066 1.325
vt -0.181066 1.5
vt -0.075 1.275
vt -0.075 1.425
vt 0.07499999 1.425
vt 0.07499999 1.5
vt -0.075 1.075
vt 0.181066 1
vt 0.07499999 1
vt 0.181066 1.175
vt 0.07499999 1.275
vt 0.181066 1.325
vt 0.181066 1.5
vt 0.181066 1.225
vt -0.075 1.225
vt 0.181066 1.075
vt 0.075 1
vt -0.075 1.175
vt 0.075 1.175
vt 0.281066 0.0375
vt 0.281066 -0.0375
vt -0.281066 1.2125
vt -0.281066 1.2875
vt 0.281066 1.2125
vt 0.281066 1.2875
vt -0.0375 1.2125
vt -0.0375 1.2875
vt 0.0375 1.2125
vt 0.0375 1.2875
vt 0.075 1.325
vt 0.281066 1.1875
vt 0.281066 1.1125
vt -0.281066 1.1125
vt -0.281066 1.1875
vt -0.181066 1.075
vt -0.181066 1.225
vt 0.0375 1.1125
vt -0.0375 1.1125
vt 0.0375 1.1875
vt -0.0375 1.1875
vt -0.0375 0.281066
vt 0.0375 0.281066
vt -0.0375 -0.281066
vt 0.0375 -0.281066
vt 0.03749999 1.2875
vt 0.03749999 1.2125
vt -0.03750001 1.2875
vt -0.03750001 1.2125
vt -0.281066 0.03749999
vt -0.281066 -0.03750001
vt -0.281066 -0.03749999
vt -0.281066 0.03750001
vt 0.075 1.175
vt 0.03749999 1.3125
vt -0.03750001 1.3125
vt 0.03749999 1.3875
vt -0.03750001 1.3875
vt 0.181066 1.275
vt 0.181066 1.425
vt 0.281066 1.3125
vt 0.281066 1.3875
vt -0.03749999 0.281066
vt 0.03750001 0.281066
vt -0.03749999 -0.281066
vt 0.03750001 -0.281066
vt -0.181066 1.425
vt -0.181066 1.275
vt -0.281066 1.3875
vt -0.281066 1.3125

usemtl foliage(Clone)

f 3/3/1 2/2/1 1/1/1
f 2/2/1 3/3/1 4/4/1
f 7/7/2 6/6/2 5/5/2
f 6/6/2 7/7/2 8/8/2
f 3/11/3 7/10/3 4/9/3
f 7/10/3 3/11/3 8/12/3
f 7/7/4 2/2/4 4/4/4
f 2/2/4 7/7/4 5/5/4
f 6/2/5 3/7/5 1/5/5
f 3/7/5 6/2/5 8/4/5
f 8/3/1 5/2/1 6/1/1
f 5/2/1 8/3/1 7/4/1
f 11/7/2 10/6/2 9/5/2
f 10/6/2 11/7/2 12/8/2
f 8/12/3 11/13/3 7/10/3
f 11/13/3 8/12/3 12/14/3
f 11/8/4 5/5/4 7/7/4
f 5/5/4 11/8/4 9/6/4
f 10/1/5 8/4/5 6/2/5
f 8/4/5 10/1/5 12/3/5
f 7/4/1 13/5/1 5/2/1
f 13/5/1 7/4/1 14/7/1
f 16/4/2 9/5/2 15/2/2
f 9/5/2 16/4/2 11/7/2
f 7/10/3 16/16/3 14/15/3
f 16/16/3 7/10/3 11/13/3
f 16/8/4 13/5/4 14/7/4
f 13/5/4 16/8/4 15/6/4
f 9/1/5 7/4/5 5/2/5
f 7/4/5 9/1/5 11/3/5
f 14/7/1 17/6/1 13/5/1
f 17/6/1 14/7/1 18/8/1
f 20/3/2 15/2/2 19/1/2
f 15/2/2 20/3/2 16/4/2
f 14/15/3 20/18/3 18/17/3
f 20/18/3 14/15/3 16/16/3
f 20/8/4 17/5/4 18/7/4
f 17/5/4 20/8/4 19/6/4
f 15/1/5 14/4/5 13/2/5
f 14/4/5 15/1/5 16/3/5
f 23/7/1 22/6/1 21/5/1
f 22/6/1 23/7/1 24/8/1
f 18/3/2 13/2/2 17/1/2
f 13/2/2 18/3/2 14/4/2
f 23/20/3 18/17/3 24/19/3
f 18/17/3 23/20/3 14/15/3
f 18/7/4 22/2/4 24/4/4
f 22/2/4 18/7/4 17/5/4
f 13/2/5 23/7/5 21/5/5
f 23/7/5 13/2/5 14/4/5
f 27/8/1 26/21/1 25/6/1
f 26/21/1 27/8/1 28/22/1
f 30/24/2 22/1/2 29/23/2
f 22/1/2 30/24/2 24/3/2
f 27/27/3 30/26/3 28/25/3
f 30/26/3 27/27/3 24/19/3
f 30/4/4 26/1/4 28/3/4
f 26/1/4 30/4/4 29/2/4
f 22/5/5 27/8/5 25/6/5
f 27/8/5 22/5/5 24/7/5
f 24/8/1 29/21/1 22/6/1
f 29/21/1 24/8/1 30/22/1
f 32/24/2 17/1/2 31/23/2
f 17/1/2 32/24/2 18/3/2
f 24/19/3 32/28/3 30/26/3
f 32/28/3 24/19/3 18/17/3
f 32/7/4 29/2/4 30/4/4
f 29/2/4 32/7/4 31/5/4
f 17/2/5 24/7/5 22/5/5
f 24/7/5 17/2/5 18/4/5
f 18/8/1 31/21/1 17/6/1
f 31/21/1 18/8/1 32/22/1
f 34/24/2 19/1/2 33/23/2
f 19/1/2 34/24/2 20/3/2
f 18/17/3 34/29/3 32/28/3
f 34/29/3 18/17/3 20/18/3
f 34/8/4 31/5/4 32/7/4
f 31/5/4 34/8/4 33/6/4
f 19/1/5 18/4/5 17/2/5
f 18/4/5 19/1/5 20/3/5
f 20/8/1 33/21/1 19/6/1
f 33/21/1 20/8/1 34/22/1
f 37/24/2 36/1/2 35/23/2
f 36/1/2 37/24/2 38/3/2
f 20/18/3 37/30/3 34/29/3
f 37/30/3 20/18/3 38/31/3
f 37/22/4 33/6/4 34/8/4
f 33/6/4 37/22/4 35/21/4
f 36/23/5 20/3/5 19/1/5
f 20/3/5 36/23/5 38/24/5
f 16/7/1 19/6/1 15/5/1
f 19/6/1 16/7/1 20/8/1
f 38/3/2 39/2/2 36/1/2
f 39/2/2 38/3/2 40/4/2
f 16/16/3 38/31/3 20/18/3
f 38/31/3 16/16/3 40/32/3
f 38/22/4 19/6/4 20/8/4
f 19/6/4 38/22/4 36/21/4
f 39/23/5 16/3/5 15/1/5
f 16/3/5 39/23/5 40/24/5
f 11/4/1 15/5/1 9/2/1
f 15/5/1 11/4/1 16/7/1
f 40/4/2 41/5/2 39/2/2
f 41/5/2 40/4/2 42/7/2
f 11/13/3 40/32/3 16/16/3
f 40/32/3 11/13/3 42/33/3
f 40/22/4 15/6/4 16/8/4
f 15/6/4 40/22/4 39/21/4
f 41/23/5 11/3/5 9/1/5
f 11/3/5 41/23/5 42/24/5
f 11/4/1 15/5/1 9/2/1
f 15/5/1 11/4/1 16/7/1
f 40/4/2 41/5/2 39/2/2
f 41/5/2 40/4/2 42/7/2
f 11/13/3 40/32/3 16/16/3
f 40/32/3 11/13/3 42/33/3
f 40/22/4 15/6/4 16/8/4
f 15/6/4 40/22/4 39/21/4
f 41/23/5 11/3/5 9/1/5
f 11/3/5 41/23/5 42/24/5
f 12/3/1 9/2/1 10/1/1
f 9/2/1 12/3/1 11/4/1
f 42/7/2 43/6/2 41/5/2
f 43/6/2 42/7/2 44/8/2
f 12/14/3 42/33/3 11/13/3
f 42/33/3 12/14/3 44/34/3
f 42/22/4 9/6/4 11/8/4
f 9/6/4 42/22/4 41/21/4
f 43/23/5 12/3/5 10/1/5
f 12/3/5 43/23/5 44/24/5
f 46/24/1 10/1/1 45/23/1
f 10/1/1 46/24/1 12/3/1
f 44/8/2 47/21/2 43/6/2
f 47/21/2 44/8/2 48/22/2
f 46/35/3 44/34/3 12/14/3
f 44/34/3 46/35/3 48/36/3
f 44/22/4 10/6/4 12/8/4
f 10/6/4 44/22/4 43/21/4
f 47/23/5 46/3/5 45/1/5
f 46/3/5 47/23/5 48/24/5
f 50/24/1 6/1/1 49/23/1
f 6/1/1 50/24/1 8/3/1
f 12/8/2 45/21/2 10/6/2
f 45/21/2 12/8/2 46/22/2
f 50/37/3 12/14/3 8/12/3
f 12/14/3 50/37/3 46/35/3
f 12/8/4 6/5/4 8/7/4
f 6/5/4 12/8/4 10/6/4
f 45/1/5 50/4/5 49/2/5
f 50/4/5 45/1/5 46/3/5
f 52/24/1 1/1/1 51/23/1
f 1/1/1 52/24/1 3/3/1
f 8/8/2 49/21/2 6/6/2
f 49/21/2 8/8/2 50/22/2
f 52/38/3 8/12/3 3/11/3
f 8/12/3 52/38/3 50/37/3
f 8/7/4 1/2/4 3/4/4
f 1/2/4 8/7/4 6/5/4
f 49/2/5 52/7/5 51/5/5
f 52/7/5 49/2/5 50/4/5
f 55/24/1 54/1/1 53/23/1
f 54/1/1 55/24/1 56/3/1
f 3/8/2 51/21/2 1/6/2
f 51/21/2 3/8/2 52/22/2
f 55/40/3 3/11/3 56/39/3
f 3/11/3 55/40/3 52/38/3
f 3/4/4 54/1/4 56/3/4
f 54/1/4 3/4/4 1/2/4
f 51/5/5 55/8/5 53/6/5
f 55/8/5 51/5/5 52/7/5
f 4/4/1 21/5/1 2/2/1
f 21/5/1 4/4/1 23/7/1
f 14/4/2 5/5/2 13/2/2
f 5/5/2 14/4/2 7/7/2
f 4/9/3 14/15/3 23/20/3
f 14/15/3 4/9/3 7/10/3
f 14/7/4 21/2/4 23/4/4
f 21/2/4 14/7/4 13/5/4
f 5/2/5 4/7/5 2/5/5
f 4/7/5 5/2/5 7/4/5
f 59/8/1 58/21/1 57/6/1
f 58/21/1 59/8/1 60/22/1
f 28/24/2 25/1/2 26/23/2
f 25/1/2 28/24/2 27/3/2
f 59/42/3 28/25/3 60/41/3
f 28/25/3 59/42/3 27/27/3
f 28/3/4 58/23/4 60/24/4
f 58/23/4 28/3/4 26/1/4
f 25/6/5 59/22/5 57/21/5
f 59/22/5 25/6/5 27/8/5
f 62/7/1 57/6/1 61/5/1
f 57/6/1 62/7/1 59/8/1
f 27/3/2 63/2/2 25/1/2
f 63/2/2 27/3/2 64/4/2
f 62/43/3 27/27/3 59/42/3
f 27/27/3 62/43/3 64/44/3
f 27/3/4 57/23/4 59/24/4
f 57/23/4 27/3/4 25/1/4
f 63/6/5 62/22/5 61/21/5
f 62/22/5 63/6/5 64/8/5
f 64/7/1 25/6/1 63/5/1
f 25/6/1 64/7/1 27/8/1
f 24/3/2 21/2/2 22/1/2
f 21/2/2 24/3/2 23/4/2
f 64/44/3 24/19/3 27/27/3
f 24/19/3 64/44/3 23/20/3
f 24/4/4 25/1/4 27/3/4
f 25/1/4 24/4/4 22/2/4
f 21/5/5 64/8/5 63/6/5
f 64/8/5 21/5/5 23/7/5
f 66/4/1 61/5/1 65/2/1
f 61/5/1 66/4/1 62/7/1
f 64/4/2 67/5/2 63/2/2
f 67/5/2 64/4/2 68/7/2
f 66/45/3 64/44/3 62/43/3
f 64/44/3 66/45/3 68/46/3
f 64/3/4 61/23/4 62/24/4
f 61/23/4 64/3/4 63/1/4
f 67/6/5 66/22/5 65/21/5
f 66/22/5 67/6/5 68/8/5
f 68/4/1 63/5/1 67/2/1
f 63/5/1 68/4/1 64/7/1
f 23/4/2 2/5/2 21/2/2
f 2/5/2 23/4/2 4/7/2
f 68/46/3 23/20/3 64/44/3
f 23/20/3 68/46/3 4/9/3
f 23/4/4 63/1/4 64/3/4
f 63/1/4 23/4/4 21/2/4
f 2/5/5 68/8/5 67/6/5
f 68/8/5 2/5/5 4/7/5
f 56/3/1 67/2/1 54/1/1
f 67/2/1 56/3/1 68/4/1
f 4/7/2 1/6/2 2/5/2
f 1/6/2 4/7/2 3/8/2
f 56/39/3 4/9/3 68/46/3
f 4/9/3 56/39/3 3/11/3
f 4/4/4 67/1/4 68/3/4
f 67/1/4 4/4/4 2/2/4
f 1/5/5 56/8/5 54/6/5
f 56/8/5 1/5/5 3/7/5
f 70/3/1 65/2/1 69/1/1
f 65/2/1 70/3/1 66/4/1
f 68/7/2 54/6/2 67/5/2
f 54/6/2 68/7/2 56/8/2
f 70/47/3 68/46/3 66/45/3
f 68/46/3 70/47/3 56/39/3
f 68/3/4 65/23/4 66/24/4
f 65/23/4 68/3/4 67/1/4
f 54/6/5 70/22/5 69/21/5
f 70/22/5 54/6/5 56/8/5
f 72/24/1 69/1/1 71/23/1
f 69/1/1 72/24/1 70/3/1
f 56/8/2 53/21/2 54/6/2
f 53/21/2 56/8/2 55/22/2
f 72/48/3 56/39/3 70/47/3
f 56/39/3 72/48/3 55/40/3
f 56/3/4 69/23/4 70/24/4
f 69/23/4 56/3/4 54/1/4
f 53/6/5 72/22/5 71/21/5
f 72/22/5 53/6/5 55/8/5
f 75/51/6 74/50/7 73/49/6
f 74/50/7 75/51/6 76/52/7
f 78/55/8 75/54/2 77/53/8
f 75/54/2 78/55/8 79/56/2
f 78/59/8 81/58/9 80/57/9
f 81/58/9 78/59/8 77/60/8
f 73/49/10 83/62/10 82/61/10
f 83/62/10 73/49/10 84/63/10
f 84/63/10 73/49/10 74/50/10
f 84/63/10 74/50/10 85/64/10
f 77/65/11 73/49/6 82/61/11
f 73/49/6 77/65/11 75/51/6
f 88/68/12 87/67/1 86/66/12
f 87/67/1 88/68/12 89/69/1
f 76/72/13 88/71/12 86/70/12
f 88/71/12 76/72/13 90/73/13
f 79/56/2 76/74/13 75/54/2
f 76/74/13 79/56/2 90/75/13
f 89/69/1 81/76/9 87/67/1
f 81/76/9 89/69/1 80/77/9
f 77/65/11 83/62/14 81/78/14
f 83/62/14 77/65/11 82/61/11
f 86/79/15 84/63/16 85/64/15
f 84/63/16 86/79/15 87/80/16
f 87/80/16 83/62/14 84/63/16
f 83/62/14 87/80/16 81/78/14
f 85/64/15 76/52/7 86/79/15
f 76/52/7 85/64/15 74/50/7
f 93/83/3 92/82/3 91/81/3
f 92/82/3 93/83/3 94/84/3
f 94/84/3 93/83/3 95/85/3
f 94/84/3 95/85/3 96/86/3
f 92/87/17 79/56/18 78/55/17
f 79/56/18 92/87/17 94/88/18
f 93/89/19 80/77/20 89/69/19
f 80/77/20 93/89/19 91/90/20
f 90/73/22 95/91/21 88/71/21
f 95/91/21 90/73/22 96/92/22
f 95/93/21 89/69/19 88/68/21
f 89/69/19 95/93/21 93/89/19
f 94/88/18 90/75/22 79/56/18
f 90/75/22 94/88/18 96/94/22
f 91/95/20 78/59/17 80/57/20
f 78/59/17 91/95/20 92/96/17

usemtl bricks(Clone)

f 6/11/10 2/10/10 5/9/10
f 2/10/10 6/11/10 1/12/10
f 10/39/10 5/9/10 9/46/10
f 5/9/10 10/39/10 6/11/10
f 9/46/10 13/20/10 15/44/10
f 13/20/10 9/46/10 5/9/10
f 15/44/10 17/19/10 19/27/10
f 17/19/10 15/44/10 13/20/10
f 13/20/10 22/17/10 17/19/10
f 22/17/10 13/20/10 21/15/10
f 22/17/10 26/29/10 29/28/10
f 26/29/10 22/17/10 25/18/10
f 17/19/10 29/28/10 31/26/10
f 29/28/10 17/19/10 22/17/10
f 19/27/10 31/26/10 33/25/10
f 31/26/10 19/27/10 17/19/10
f 36/42/10 33/25/10 35/41/10
f 33/25/10 36/42/10 19/27/10
f 39/43/10 19/27/10 36/42/10
f 19/27/10 39/43/10 15/44/10
f 41/45/10 15/44/10 39/43/10
f 15/44/10 41/45/10 9/46/10
f 41/45/10 15/44/10 39/43/10
f 15/44/10 41/45/10 9/46/10
f 43/47/10 9/46/10 41/45/10
f 9/46/10 43/47/10 10/39/10
f 47/48/10 10/39/10 43/47/10
f 10/39/10 47/48/10 45/40/10
f 45/40/10 6/11/10 10/39/10
f 6/11/10 45/40/10 49/38/10
f 49/38/10 1/12/10 6/11/10
f 1/12/10 49/38/10 51/37/10
f 51/37/10 54/14/10 1/12/10
f 54/14/10 51/37/10 53/35/10
f 5/9/10 21/15/10 13/20/10
f 21/15/10 5/9/10 2/10/10
f 25/18/10 58/30/10 26/29/10
f 58/30/10 25/18/10 57/31/10
f 63/16/10 57/31/10 25/18/10
f 57/31/10 63/16/10 61/32/10
f 21/15/10 25/18/10 22/17/10
f 25/18/10 21/15/10 63/16/10
f 67/13/10 61/32/10 63/16/10
f 61/32/10 67/13/10 65/33/10
f 2/10/10 63/16/10 21/15/10
f 63/16/10 2/10/10 67/13/10
f 1/12/10 67/13/10 2/10/10
f 67/13/10 1/12/10 54/14/10
f 54/14/10 65/33/10 67/13/10
f 65/33/10 54/14/10 69/34/10
f 53/35/10 69/34/10 54/14/10
f 69/34/10 53/35/10 71/36/10

usemtl wood(Clone)

f 99/99/3 98/98/3 97/97/3
f 98/98/3 99/99/3 100/100/3
f 100/100/3 99/99/3 101/101/3
f 100/100/3 101/101/3 102/102/3
f 102/102/3 101/101/3 103/103/3
f 102/102/3 103/103/3 104/104/3
f 107/107/23 106/106/23 105/105/23
f 106/106/23 107/107/23 108/108/23
f 111/111/24 110/110/24 109/109/24
f 110/110/24 111/111/24 112/112/24
f 115/115/25 114/114/25 113/113/25
f 114/114/25 115/115/25 116/116/25
f 114/119/26 118/118/26 117/117/26
f 118/118/26 114/119/26 116/120/26
f 113/123/27 119/122/27 115/121/27
f 119/122/27 113/123/27 120/124/27
f 108/127/28 110/126/28 106/125/28
f 110/126/28 108/127/28 109/128/28
f 118/127/29 105/114/29 117/113/29
f 105/114/29 118/127/29 107/116/29
f 112/113/30 119/116/30 120/114/30
f 119/116/30 112/113/30 111/115/30
f 103/130/31 115/115/31 119/129/31
f 115/115/31 103/130/31 101/131/31
f 101/131/32 116/116/32 115/115/32
f 116/116/32 101/131/32 99/132/32
f 99/132/33 118/133/33 116/116/33
f 118/127/33 99/130/33 97/134/33
f 100/135/34 109/128/34 108/127/34
f 109/128/34 100/135/34 102/132/34
f 98/136/35 108/127/35 107/129/35
f 108/127/35 98/136/35 100/135/35
f 111/133/36 102/132/36 104/137/36
f 102/130/36 111/115/36 109/129/36
f 97/134/37 107/116/37 118/127/37
f 107/116/37 97/134/37 98/132/37
f 111/115/38 103/132/38 119/116/38
f 103/132/38 111/115/38 104/131/38
f 105/117/10 114/138/10 117/105/10
f 114/138/10 105/117/10 106/139/10
f 114/138/10 106/139/10 113/140/10
f 113/140/10 106/139/10 110/141/10
f 113/140/10 110/141/10 120/112/10
f 120/112/10 110/141/10 112/124/10
f 123/144/10 122/143/10 121/142/10
f 122/143/10 123/144/10 124/145/10
f 122/143/10 124/145/10 125/102/10
f 125/102/10 124/145/10 126/101/10
f 125/102/10 126/101/10 127/104/10
f 127/104/10 126/101/10 128/103/10
f 131/99/3 130/98/3 129/97/3
f 130/98/3 131/99/3 132/100/3
f 132/100/3 131/99/3 133/101/3
f 132/100/3 133/101/3 134/102/3
f 134/102/3 133/101/3 135/103/3
f 134/102/3 135/103/3 136/104/3
f 137/148/39 125/147/39 127/146/39
f 125/147/39 137/148/39 138/149/39
f 138/149/39 137/148/39 139/150/39
f 139/150/39 137/148/39 140/151/39
f 139/150/39 140/151/39 133/152/39
f 133/152/39 140/151/39 135/153/39
f 130/156/4 141/155/40 129/154/4
f 141/155/40 130/156/4 142/157/40
f 126/160/41 143/159/41 128/158/41
f 143/159/41 126/160/41 144/161/41
f 144/161/41 126/160/41 136/162/41
f 136/162/41 126/160/41 134/156/41
f 134/156/41 126/160/41 145/163/41
f 134/156/41 145/163/41 146/164/41
f 132/166/2 146/164/42 147/165/42
f 146/164/42 132/166/2 134/156/2
f 138/149/43 122/160/1 125/147/1
f 122/160/1 138/149/43 148/167/43
f 149/170/44 124/169/44 123/168/44
f 124/169/44 149/170/44 150/171/44
f 150/171/44 149/170/44 142/172/44
f 150/171/44 142/172/44 147/165/44
f 147/165/44 142/172/44 130/173/44
f 147/165/44 130/173/44 132/166/44
f 129/154/45 151/174/45 131/153/45
f 151/175/45 129/162/45 148/167/45
f 148/176/45 129/154/45 122/146/45
f 122/146/45 129/154/45 121/177/45
f 121/146/45 129/153/45 141/151/45
f 121/146/45 141/151/45 152/148/45
f 128/147/5 137/178/46 127/160/5
f 137/178/46 128/147/5 143/179/46
f 143/103/46 153/180/47 137/104/46
f 153/180/47 143/103/46 154/181/47
f 155/181/49 144/104/48 140/103/48
f 144/104/48 155/181/49 156/180/49
f 144/161/50 154/182/50 143/159/50
f 154/182/50 144/161/50 156/183/50
f 153/184/51 140/151/51 137/148/51
f 140/151/51 153/184/51 155/185/51
f 154/188/5 155/187/5 153/186/5
f 155/187/5 154/188/5 156/189/5
f 144/190/48 135/156/5 140/157/48
f 135/156/5 144/190/48 136/152/5
f 151/174/52 158/192/52 157/191/52
f 158/192/52 151/174/52 148/176/52
f 138/195/53 160/194/53 159/193/53
f 160/194/53 138/195/53 139/196/53
f 160/199/1 158/198/1 159/197/1
f 158/198/1 160/199/1 157/200/1
f 138/102/43 158/201/54 148/143/43
f 158/201/54 138/102/43 159/202/54
f 157/203/56 139/101/55 151/99/55
f 139/101/55 157/203/56 160/204/56
f 133/152/1 151/175/55 139/150/55
f 151/175/55 133/152/1 131/156/1
f 163/207/4 162/206/4 161/205/4
f 162/206/4 163/207/4 164/208/4
f 141/161/57 162/182/57 152/159/57
f 162/182/57 141/161/57 161/183/57
f 164/210/58 152/142/59 162/209/58
f 152/142/59 164/210/58 149/144/59
f 164/184/60 142/172/60 149/170/60
f 142/172/60 164/184/60 163/185/60
f 141/97/40 163/212/61 161/211/61
f 163/212/61 141/97/40 142/98/40
f 149/178/59 121/177/4 152/213/59
f 121/177/4 149/178/59 123/160/4
f 167/216/2 166/215/2 165/214/2
f 166/215/2 167/216/2 168/217/2
f 166/220/62 146/219/62 145/218/62
f 146/219/62 166/220/62 168/221/62
f 146/102/42 167/222/63 147/100/42
f 167/222/63 146/102/42 168/223/63
f 165/224/65 145/101/64 150/145/64
f 145/101/64 165/224/65 166/225/65
f 167/228/66 150/227/66 147/226/66
f 150/227/66 167/228/66 165/229/66
f 150/171/64 126/160/2 124/169/2
f 126/160/2 150/171/64 145/163/64
f 98/144/10 99/143/10 97/142/10
f 99/143/10 98/144/10 100/145/10
f 99/143/10 100/145/10 101/102/10
f 101/102/10 100/145/10 102/101/10
f 101/102/10 102/101/10 103/104/10
f 103/104/10 102/101/10 104/103/10
f 122/99/3 123/98/3 121/97/3
f 123/98/3 122/99/3 124/100/3
f 124/100/3 122/99/3 125/101/3
f 124/100/3 125/101/3 126/102/3
f 126/102/3 125/101/3 127/103/3
f 126/102/3 127/103/3 128/104/3
f 127/146/39 101/131/39 103/130/39
f 101/131/39 127/146/39 125/147/39
f 123/160/4 97/134/4 121/177/4
f 97/134/4 123/160/4 98/132/4
f 102/132/41 128/158/41 104/137/41
f 128/158/41 102/132/41 126/160/41
f 124/169/2 102/132/2 100/135/2
f 102/132/2 124/169/2 126/160/2
f 125/147/1 99/132/1 101/131/1
f 99/132/1 125/147/1 122/160/1
f 123/168/44 100/135/44 98/136/44
f 100/135/44 123/168/44 124/169/44
f 121/177/45 99/130/45 122/146/45
f 99/130/45 121/177/45 97/134/45
f 104/131/5 127/160/5 103/132/5
f 127/160/5 104/131/5 128/147/5

